#!OML:ASF H:\ManfredETheater\Project 1\Capture day 1\Session 1\subject.ASF
:FULLY-SPECIFIED
:DEGREES
137
root 3.62403 14.5488 -19.8944 -199.797 -48.345 -165.514
lowerback 32.9968 1.48316 6.81262
upperback 6.39778 3.5071 6.28685
thorax -9.79643 0.855963 1.85173
lowerneck -4.2711 -13.4115 -16.064
upperneck 6.30159 -17.7402 10.327
head 4.9203 -8.76419 4.35554
rclavicle -4.13472e-014 -2.06736e-014
rhumerus -13.8202 -5.21557 -53.6932
rradius 63.4056
rwrist -4.4825
rhand -25.1327 -7.42727
rfingers 7.12502
rthumb 1.38338 -37.4025
lclavicle -4.13472e-014 -2.06736e-014
lhumerus -13.6911 39.6706 9.97222
lradius 88.7609
lwrist 19.5718
lhand -29.263 10.087
lfingers 7.12502
lthumb -2.60569 40.0509
rfemur -37.1444 -8.93536 6.94275
rtibia 56.6281
rfoot 0.0449197 -4.6885
rtoes -37.2339
lfemur -48.491 -4.12333 -6.90333
ltibia 83.456
lfoot -23.0661 -17.5804
ltoes 17.0083
138
root 3.6635 14.5299 -20.1083 -199.751 -48.7477 -165.639
lowerback 33.2104 1.47382 6.61506
upperback 6.41127 3.45159 6.42263
thorax -9.89417 0.826229 2.12027
lowerneck -4.1418 -13.4716 -16.2095
upperneck 6.09331 -17.8296 10.4723
head 4.87346 -8.80875 4.42117
rclavicle 3.97569e-016 -4.21423e-014
rhumerus -15.3798 -6.44296 -55.3286
rradius 62.8764
rwrist -4.61714
rhand -25.8017 -7.74776
rfingers 7.12502
rthumb 0.737245 -37.7262
lclavicle 3.97569e-016 -4.21423e-014
lhumerus -12.4107 41.0062 8.47476
lradius 87.1597
lwrist 18.6996
lhand -29.4516 9.55472
lfingers 7.12502
lthumb -2.78789 39.5162
rfemur -37.8372 -9.85143 7.36452
rtibia 58.5463
rfoot -0.254152 -5.16651
rtoes -36.6003
lfemur -48.2315 -4.45537 -6.30766
ltibia 83.7459
lfoot -23.8091 -17.7624
ltoes 16.0535
139
root 3.70114 14.5188 -20.3157 -199.495 -49.1027 -166
lowerback 33.3837 1.50128 6.27973
upperback 6.43586 3.39009 6.51133
thorax -9.97082 0.80075 2.41344
lowerneck -4.04062 -13.5248 -16.3064
upperneck 5.90652 -17.906 10.5744
head 4.82789 -8.84684 4.46667
rclavicle -7.27552e-014 -5.1684e-014
rhumerus -16.9312 -7.67704 -56.8599
rradius 62.3439
rwrist -5.00184
rhand -26.5039 -8.1844
rfingers 7.12502
rthumb 0.0590303 -38.1641
lclavicle -7.27552e-014 -5.1684e-014
lhumerus -11.2676 42.2464 7.18873
lradius 85.764
lwrist 18.0066
lhand -29.7551 9.16751
lfingers 7.12502
lthumb -3.08096 39.125
rfemur -38.4852 -10.6688 7.65804
rtibia 60.3165
rfoot -0.713001 -5.74616
rtoes -35.9875
lfemur -47.9121 -4.77609 -5.87925
ltibia 83.9254
lfoot -24.4865 -17.8501
ltoes 15.053
140
root 3.73652 14.5157 -20.5175 -199.044 -49.4005 -166.558
lowerback 33.5071 1.56197 5.83836
upperback 6.46426 3.32964 6.56034
thorax -10.0282 0.781997 2.72002
lowerneck -3.96796 -13.5722 -16.3683
upperneck 5.7503 -17.9712 10.6368
head 4.78806 -8.87939 4.49439
rclavicle 8.34896e-015 -2.78299e-014
rhumerus -18.4848 -8.90629 -58.2766
rradius 61.7919
rwrist -5.60786
rhand -27.1926 -8.71079
rfingers 7.12502
rthumb -0.606151 -38.6897
lclavicle 8.34896e-015 -2.78299e-014
lhumerus -10.2805 43.3924 6.1253
lradius 84.61
lwrist 17.4646
lhand -30.1244 8.88928
lfingers 7.12502
lthumb -3.43757 38.8413
rfemur -39.0588 -11.2861 7.81079
rtibia 61.8153
rfoot -1.20355 -6.21806
rtoes -35.5526
lfemur -47.558 -5.06015 -5.58087
ltibia 84.011
lfoot -25.0705 -17.9016
ltoes 14.0871
141
root 3.76932 14.518 -20.7144 -198.465 -49.6377 -167.213
lowerback 33.5789 1.63568 5.36471
upperback 6.48734 3.27137 6.58397
thorax -10.0706 0.76785 3.01636
lowerneck -3.92967 -13.6119 -16.3962
upperneck 5.62391 -18.0206 10.6504
head 4.75314 -8.9043 4.50201
rclavicle 4.17448e-014 2.38542e-015
rhumerus -20.043 -10.1171 -59.5745
rradius 61.1938
rwrist -6.35413
rhand -27.8398 -9.32503
rfingers 7.12502
rthumb -1.23116 -39.3012
lclavicle 4.17448e-014 2.38542e-015
lhumerus -9.49374 44.3962 5.24767
lradius 83.7676
lwrist 17.0895
lhand -30.5716 8.77021
lfingers 7.12502
lthumb -3.8694 38.7148
rfemur -39.5356 -11.731 7.89896
rtibia 63.0687
rfoot -1.77256 -6.508
rtoes -35.6352
lfemur -47.216 -5.29224 -5.33433
ltibia 84.0366
lfoot -25.5425 -17.9752
ltoes 13.1956
